<svg width="527" height="142" viewBox="0 0 527 142" fill="none" xmlns="http://www.w3.org/2000/svg">
<g clip-path="url(#clip0_2001_91)">
<mask id="path-1-inside-1_2001_91" fill="white">
<path d="M22.1872 108.528V111.216C22.1872 111.643 22.3372 112.005 22.6352 112.304C22.9342 112.603 23.2972 112.752 23.7242 112.752H41.0032C41.4302 112.752 41.7932 112.901 42.0922 113.2C42.3902 113.499 42.5402 113.861 42.5402 114.288V123.248C42.5402 123.675 42.3902 124.037 42.0922 124.336C41.7932 124.635 41.4302 124.784 41.0032 124.784H23.7242C23.2972 124.784 22.9342 124.933 22.6352 125.232C22.3372 125.531 22.1872 125.893 22.1872 126.32V140.464C22.1872 140.891 22.0382 141.253 21.7392 141.552C21.4412 141.851 21.0782 142 20.6522 142H10.9872C10.5612 142 10.1982 141.851 9.89919 141.552C9.60119 141.253 9.45117 140.891 9.45117 140.464V96.6883C9.45117 96.2613 9.60119 95.899 9.89919 95.6003C10.1982 95.3016 10.5612 95.1523 10.9872 95.1523H43.5642C43.9902 95.1523 44.3532 95.3016 44.6522 95.6003C44.9502 95.899 45.1002 96.2613 45.1002 96.6883V105.456C45.1002 105.883 44.9502 106.245 44.6522 106.544C44.3532 106.843 43.9902 106.992 43.5642 106.992H23.7242C23.2972 106.992 22.9342 107.141 22.6352 107.44C22.3372 107.739 22.1872 108.101 22.1872 108.528ZM93.8902 131.76V140.464C93.8902 140.891 93.7402 141.253 93.4422 141.552C93.1432 141.851 92.7802 142 92.3542 142H60.4182C59.9482 142 59.5642 141.851 59.2662 141.552C59.0102 141.253 58.8822 140.891 58.8822 140.464V96.6883C58.8822 96.2613 59.0102 95.899 59.2662 95.6003C59.5642 95.3016 59.9482 95.1523 60.4182 95.1523H70.0182C70.4442 95.1523 70.8072 95.3016 71.1062 95.6003C71.4042 95.899 71.5542 96.2613 71.5542 96.6883V128.688C71.5542 129.115 71.6822 129.477 71.9382 129.776C72.2362 130.075 72.6202 130.224 73.0902 130.224H92.3542C92.7802 130.224 93.1432 130.373 93.4422 130.672C93.7402 130.971 93.8902 131.333 93.8902 131.76ZM118.609 108.464V111.152C118.609 111.579 118.758 111.941 119.057 112.24C119.355 112.539 119.718 112.688 120.145 112.688H137.489C137.915 112.688 138.278 112.837 138.577 113.136C138.875 113.435 139.025 113.797 139.025 114.224V123.056C139.025 123.483 138.875 123.845 138.577 124.144C138.278 124.443 137.915 124.592 137.489 124.592H120.145C119.718 124.592 119.355 124.741 119.057 125.04C118.758 125.339 118.609 125.701 118.609 126.128V128.56C118.609 128.987 118.758 129.349 119.057 129.648C119.355 129.947 119.718 130.096 120.145 130.096H140.049C140.475 130.096 140.838 130.245 141.137 130.544C141.435 130.843 141.585 131.205 141.585 131.632V140.464C141.585 140.891 141.435 141.253 141.137 141.552C140.838 141.851 140.475 142 140.049 142H107.473C107.046 142 106.683 141.851 106.385 141.552C106.086 141.253 105.937 140.891 105.937 140.464V96.6883C105.937 96.2613 106.086 95.899 106.385 95.6003C106.683 95.3016 107.046 95.1523 107.473 95.1523H140.049C140.475 95.1523 140.838 95.3016 141.137 95.6003C141.435 95.899 141.585 96.2613 141.585 96.6883V105.392C141.585 105.819 141.435 106.181 141.137 106.48C140.838 106.779 140.475 106.928 140.049 106.928H120.145C119.718 106.928 119.355 107.077 119.057 107.376C118.758 107.675 118.609 108.037 118.609 108.464ZM169.976 108.464V111.152C169.976 111.579 170.125 111.941 170.424 112.24C170.723 112.539 171.085 112.688 171.512 112.688H188.856C189.283 112.688 189.645 112.837 189.944 113.136C190.243 113.435 190.392 113.797 190.392 114.224V123.056C190.392 123.483 190.243 123.845 189.944 124.144C189.645 124.443 189.283 124.592 188.856 124.592H171.512C171.085 124.592 170.723 124.741 170.424 125.04C170.125 125.339 169.976 125.701 169.976 126.128V128.56C169.976 128.987 170.125 129.349 170.424 129.648C170.723 129.947 171.085 130.096 171.512 130.096H191.416C191.843 130.096 192.205 130.245 192.504 130.544C192.803 130.843 192.952 131.205 192.952 131.632V140.464C192.952 140.891 192.803 141.253 192.504 141.552C192.205 141.851 191.843 142 191.416 142H158.84C158.413 142 158.051 141.851 157.752 141.552C157.453 141.253 157.304 140.891 157.304 140.464V96.6883C157.304 96.2613 157.453 95.899 157.752 95.6003C158.051 95.3016 158.413 95.1523 158.84 95.1523H191.416C191.843 95.1523 192.205 95.3016 192.504 95.6003C192.803 95.899 192.952 96.2613 192.952 96.6883V105.392C192.952 105.819 192.803 106.181 192.504 106.48C192.205 106.779 191.843 106.928 191.416 106.928H171.512C171.085 106.928 170.723 107.077 170.424 107.376C170.125 107.675 169.976 108.037 169.976 108.464ZM239.392 106.928H230.432C230.005 106.928 229.643 107.077 229.344 107.376C229.045 107.675 228.896 108.037 228.896 108.464V140.464C228.896 140.891 228.747 141.253 228.448 141.552C228.192 141.851 227.829 142 227.36 142H217.76C217.333 142 216.971 141.851 216.672 141.552C216.373 141.253 216.224 140.891 216.224 140.464V108.464C216.224 108.037 216.075 107.675 215.776 107.376C215.52 107.077 215.157 106.928 214.688 106.928H205.6C205.173 106.928 204.811 106.779 204.512 106.48C204.213 106.181 204.064 105.819 204.064 105.392V96.6883C204.064 96.2613 204.213 95.899 204.512 95.6003C204.811 95.3016 205.173 95.1523 205.6 95.1523H239.392C239.861 95.1523 240.224 95.3016 240.48 95.6003C240.779 95.899 240.928 96.2613 240.928 96.6883V105.392C240.928 105.819 240.779 106.181 240.48 106.48C240.224 106.779 239.861 106.928 239.392 106.928Z"></path>
</mask>
<path d="M22.1872 108.528V111.216C22.1872 111.643 22.3372 112.005 22.6352 112.304C22.9342 112.603 23.2972 112.752 23.7242 112.752H41.0032C41.4302 112.752 41.7932 112.901 42.0922 113.2C42.3902 113.499 42.5402 113.861 42.5402 114.288V123.248C42.5402 123.675 42.3902 124.037 42.0922 124.336C41.7932 124.635 41.4302 124.784 41.0032 124.784H23.7242C23.2972 124.784 22.9342 124.933 22.6352 125.232C22.3372 125.531 22.1872 125.893 22.1872 126.32V140.464C22.1872 140.891 22.0382 141.253 21.7392 141.552C21.4412 141.851 21.0782 142 20.6522 142H10.9872C10.5612 142 10.1982 141.851 9.89919 141.552C9.60119 141.253 9.45117 140.891 9.45117 140.464V96.6883C9.45117 96.2613 9.60119 95.899 9.89919 95.6003C10.1982 95.3016 10.5612 95.1523 10.9872 95.1523H43.5642C43.9902 95.1523 44.3532 95.3016 44.6522 95.6003C44.9502 95.899 45.1002 96.2613 45.1002 96.6883V105.456C45.1002 105.883 44.9502 106.245 44.6522 106.544C44.3532 106.843 43.9902 106.992 43.5642 106.992H23.7242C23.2972 106.992 22.9342 107.141 22.6352 107.44C22.3372 107.739 22.1872 108.101 22.1872 108.528ZM93.8902 131.76V140.464C93.8902 140.891 93.7402 141.253 93.4422 141.552C93.1432 141.851 92.7802 142 92.3542 142H60.4182C59.9482 142 59.5642 141.851 59.2662 141.552C59.0102 141.253 58.8822 140.891 58.8822 140.464V96.6883C58.8822 96.2613 59.0102 95.899 59.2662 95.6003C59.5642 95.3016 59.9482 95.1523 60.4182 95.1523H70.0182C70.4442 95.1523 70.8072 95.3016 71.1062 95.6003C71.4042 95.899 71.5542 96.2613 71.5542 96.6883V128.688C71.5542 129.115 71.6822 129.477 71.9382 129.776C72.2362 130.075 72.6202 130.224 73.0902 130.224H92.3542C92.7802 130.224 93.1432 130.373 93.4422 130.672C93.7402 130.971 93.8902 131.333 93.8902 131.76ZM118.609 108.464V111.152C118.609 111.579 118.758 111.941 119.057 112.24C119.355 112.539 119.718 112.688 120.145 112.688H137.489C137.915 112.688 138.278 112.837 138.577 113.136C138.875 113.435 139.025 113.797 139.025 114.224V123.056C139.025 123.483 138.875 123.845 138.577 124.144C138.278 124.443 137.915 124.592 137.489 124.592H120.145C119.718 124.592 119.355 124.741 119.057 125.04C118.758 125.339 118.609 125.701 118.609 126.128V128.56C118.609 128.987 118.758 129.349 119.057 129.648C119.355 129.947 119.718 130.096 120.145 130.096H140.049C140.475 130.096 140.838 130.245 141.137 130.544C141.435 130.843 141.585 131.205 141.585 131.632V140.464C141.585 140.891 141.435 141.253 141.137 141.552C140.838 141.851 140.475 142 140.049 142H107.473C107.046 142 106.683 141.851 106.385 141.552C106.086 141.253 105.937 140.891 105.937 140.464V96.6883C105.937 96.2613 106.086 95.899 106.385 95.6003C106.683 95.3016 107.046 95.1523 107.473 95.1523H140.049C140.475 95.1523 140.838 95.3016 141.137 95.6003C141.435 95.899 141.585 96.2613 141.585 96.6883V105.392C141.585 105.819 141.435 106.181 141.137 106.48C140.838 106.779 140.475 106.928 140.049 106.928H120.145C119.718 106.928 119.355 107.077 119.057 107.376C118.758 107.675 118.609 108.037 118.609 108.464ZM169.976 108.464V111.152C169.976 111.579 170.125 111.941 170.424 112.24C170.723 112.539 171.085 112.688 171.512 112.688H188.856C189.283 112.688 189.645 112.837 189.944 113.136C190.243 113.435 190.392 113.797 190.392 114.224V123.056C190.392 123.483 190.243 123.845 189.944 124.144C189.645 124.443 189.283 124.592 188.856 124.592H171.512C171.085 124.592 170.723 124.741 170.424 125.04C170.125 125.339 169.976 125.701 169.976 126.128V128.56C169.976 128.987 170.125 129.349 170.424 129.648C170.723 129.947 171.085 130.096 171.512 130.096H191.416C191.843 130.096 192.205 130.245 192.504 130.544C192.803 130.843 192.952 131.205 192.952 131.632V140.464C192.952 140.891 192.803 141.253 192.504 141.552C192.205 141.851 191.843 142 191.416 142H158.84C158.413 142 158.051 141.851 157.752 141.552C157.453 141.253 157.304 140.891 157.304 140.464V96.6883C157.304 96.2613 157.453 95.899 157.752 95.6003C158.051 95.3016 158.413 95.1523 158.84 95.1523H191.416C191.843 95.1523 192.205 95.3016 192.504 95.6003C192.803 95.899 192.952 96.2613 192.952 96.6883V105.392C192.952 105.819 192.803 106.181 192.504 106.48C192.205 106.779 191.843 106.928 191.416 106.928H171.512C171.085 106.928 170.723 107.077 170.424 107.376C170.125 107.675 169.976 108.037 169.976 108.464ZM239.392 106.928H230.432C230.005 106.928 229.643 107.077 229.344 107.376C229.045 107.675 228.896 108.037 228.896 108.464V140.464C228.896 140.891 228.747 141.253 228.448 141.552C228.192 141.851 227.829 142 227.36 142H217.76C217.333 142 216.971 141.851 216.672 141.552C216.373 141.253 216.224 140.891 216.224 140.464V108.464C216.224 108.037 216.075 107.675 215.776 107.376C215.52 107.077 215.157 106.928 214.688 106.928H205.6C205.173 106.928 204.811 106.779 204.512 106.48C204.213 106.181 204.064 105.819 204.064 105.392V96.6883C204.064 96.2613 204.213 95.899 204.512 95.6003C204.811 95.3016 205.173 95.1523 205.6 95.1523H239.392C239.861 95.1523 240.224 95.3016 240.48 95.6003C240.779 95.899 240.928 96.2613 240.928 96.6883V105.392C240.928 105.819 240.779 106.181 240.48 106.48C240.224 106.779 239.861 106.928 239.392 106.928Z" fill="white" stroke="white" stroke-width="2" mask="url(#path-1-inside-1_2001_91)"></path>
<mask id="path-2-inside-2_2001_91" fill="white">
<path d="M111.667 5.44955C111.923 4.87355 112.339 4.39355 112.915 4.00955C113.555 3.56156 114.227 3.33756 114.931 3.33756H128.371C129.011 3.33756 129.619 3.56156 130.195 4.00955C130.835 4.39355 131.283 4.87355 131.539 5.44955L159.571 70.7295C159.827 71.3055 159.763 71.9135 159.379 72.5535C159.059 73.1935 158.387 73.5135 157.363 73.5135H140.947C140.243 73.5135 139.571 73.3215 138.931 72.9375C138.355 72.4895 137.907 71.9775 137.587 71.4015L134.995 65.6415C134.675 65.0655 134.195 64.5855 133.555 64.2015C132.979 63.7535 132.371 63.5295 131.731 63.5295H111.475C110.771 63.5295 110.099 63.7535 109.459 64.2015C108.883 64.5855 108.467 65.0655 108.211 65.6415L105.523 71.4015C105.267 71.9775 104.819 72.4895 104.179 72.9375C103.603 73.3215 102.995 73.5135 102.355 73.5135H85.8427C85.5227 73.5135 85.2027 73.4495 84.8827 73.3215C84.4987 73.1935 84.2107 73.0015 84.0187 72.7455C83.7627 72.4895 83.6027 72.1695 83.5387 71.7855C83.4747 71.4015 83.5707 70.9535 83.8267 70.4415L111.667 5.44955ZM117.331 47.2095H125.875C126.515 47.2095 126.963 47.0175 127.219 46.6335C127.539 46.1855 127.539 45.6735 127.219 45.0975C126.579 43.4975 125.811 41.6415 124.915 39.5295C124.019 37.3535 123.187 35.3375 122.419 33.4815C122.163 32.9055 121.875 32.6175 121.555 32.6175C121.235 32.6175 120.947 32.9055 120.691 33.4815L115.891 45.0975C115.635 45.6735 115.635 46.1855 115.891 46.6335C116.147 47.0175 116.627 47.2095 117.331 47.2095ZM216.378 58.1535V71.2095C216.378 71.8495 216.154 72.3935 215.706 72.8415C215.258 73.2895 214.714 73.5135 214.074 73.5135H166.17C165.466 73.5135 164.89 73.2895 164.442 72.8415C164.058 72.3935 163.866 71.8495 163.866 71.2095V5.54556C163.866 4.90555 164.058 4.36155 164.442 3.91356C164.89 3.46555 165.466 3.24155 166.17 3.24155H180.57C181.21 3.24155 181.754 3.46555 182.202 3.91356C182.65 4.36155 182.874 4.90555 182.874 5.54556V53.5455C182.874 54.1855 183.066 54.7295 183.45 55.1775C183.898 55.6255 184.474 55.8495 185.178 55.8495H214.074C214.714 55.8495 215.258 56.0735 215.706 56.5215C216.154 56.9695 216.378 57.5135 216.378 58.1535ZM246.011 5.44955C246.267 4.87355 246.683 4.39355 247.259 4.00955C247.899 3.56156 248.571 3.33756 249.275 3.33756H262.715C263.355 3.33756 263.963 3.56156 264.539 4.00955C265.179 4.39355 265.627 4.87355 265.883 5.44955L293.915 70.7295C294.171 71.3055 294.107 71.9135 293.723 72.5535C293.403 73.1935 292.731 73.5135 291.707 73.5135H275.291C274.587 73.5135 273.915 73.3215 273.275 72.9375C272.699 72.4895 272.251 71.9775 271.931 71.4015L269.339 65.6415C269.019 65.0655 268.539 64.5855 267.899 64.2015C267.323 63.7535 266.715 63.5295 266.075 63.5295H245.819C245.115 63.5295 244.443 63.7535 243.803 64.2015C243.227 64.5855 242.811 65.0655 242.555 65.6415L239.867 71.4015C239.611 71.9775 239.163 72.4895 238.523 72.9375C237.947 73.3215 237.339 73.5135 236.699 73.5135H220.187C219.867 73.5135 219.547 73.4495 219.227 73.3215C218.843 73.1935 218.555 73.0015 218.363 72.7455C218.107 72.4895 217.947 72.1695 217.883 71.7855C217.819 71.4015 217.915 70.9535 218.171 70.4415L246.011 5.44955ZM251.675 47.2095H260.219C260.859 47.2095 261.307 47.0175 261.563 46.6335C261.883 46.1855 261.883 45.6735 261.563 45.0975C260.923 43.4975 260.155 41.6415 259.259 39.5295C258.363 37.3535 257.531 35.3375 256.763 33.4815C256.507 32.9055 256.219 32.6175 255.899 32.6175C255.579 32.6175 255.291 32.9055 255.035 33.4815L250.235 45.0975C249.979 45.6735 249.979 46.1855 250.235 46.6335C250.491 47.0175 250.971 47.2095 251.675 47.2095ZM416.291 20.9055H402.851C402.211 20.9055 401.667 21.1295 401.219 21.5775C400.771 22.0255 400.547 22.5695 400.547 23.2095V71.2095C400.547 71.8495 400.323 72.3935 399.875 72.8415C399.491 73.2895 398.947 73.5135 398.243 73.5135H383.843C383.203 73.5135 382.659 73.2895 382.211 72.8415C381.763 72.3935 381.539 71.8495 381.539 71.2095V23.2095C381.539 22.5695 381.315 22.0255 380.867 21.5775C380.483 21.1295 379.939 20.9055 379.235 20.9055H365.603C364.963 20.9055 364.419 20.6815 363.971 20.2335C363.523 19.7855 363.299 19.2415 363.299 18.6015V5.54556C363.299 4.90555 363.523 4.36155 363.971 3.91356C364.419 3.46555 364.963 3.24155 365.603 3.24155H416.291C416.995 3.24155 417.539 3.46555 417.923 3.91356C418.371 4.36155 418.595 4.90555 418.595 5.54556V18.6015C418.595 19.2415 418.371 19.7855 417.923 20.2335C417.539 20.6815 416.995 20.9055 416.291 20.9055ZM443.561 73.5135H429.065C428.361 73.5135 427.785 73.2895 427.337 72.8415C426.953 72.3935 426.761 71.8495 426.761 71.2095V5.64156C426.761 5.00156 426.953 4.45756 427.337 4.00955C427.785 3.56156 428.361 3.33756 429.065 3.33756H443.561C444.201 3.33756 444.745 3.56156 445.193 4.00955C445.641 4.45756 445.865 5.00156 445.865 5.64156V71.2095C445.865 71.8495 445.641 72.3935 445.193 72.8415C444.745 73.2895 444.201 73.5135 443.561 73.5135ZM526.49 54.7935C524.634 57.8015 522.586 60.5535 520.346 63.0495C518.106 65.4815 515.578 67.5615 512.762 69.2895C510.01 71.0175 506.938 72.3615 503.546 73.3215C500.154 74.2815 496.41 74.7615 492.314 74.7615C487.194 74.7615 482.394 73.8015 477.914 71.8815C473.434 69.9615 469.498 67.3695 466.106 64.1055C462.778 60.8415 460.154 57.0015 458.234 52.5855C456.314 48.1695 455.354 43.4655 455.354 38.4735C455.354 33.4815 456.314 28.7775 458.234 24.3615C460.154 19.9455 462.778 16.1055 466.106 12.8415C469.498 9.57753 473.434 6.98553 477.914 5.06555C482.394 3.14555 487.194 2.18555 492.314 2.18555C496.538 2.18555 500.346 2.66555 503.738 3.62555C507.13 4.58555 510.202 5.92955 512.954 7.65753C515.706 9.38553 518.17 11.4975 520.346 13.9935C522.586 16.4255 524.634 19.1135 526.49 22.0575C526.81 22.5695 526.874 23.1135 526.682 23.6895C526.49 24.2655 526.106 24.6815 525.53 24.9375L511.898 30.3135C511.258 30.5695 510.618 30.5695 509.978 30.3135C509.338 30.0575 508.858 29.6735 508.538 29.1615C506.682 26.2175 504.442 23.9775 501.818 22.4415C499.194 20.8415 496.026 20.0415 492.314 20.0415C489.882 20.0415 487.578 20.5535 485.402 21.5775C483.29 22.6015 481.434 23.9775 479.834 25.7055C478.234 27.3695 476.986 29.3215 476.09 31.5615C475.194 33.8015 474.746 36.1055 474.746 38.4735C474.746 40.9055 475.194 43.2415 476.09 45.4815C476.986 47.6575 478.234 49.5775 479.834 51.2415C481.434 52.9055 483.29 54.2495 485.402 55.2735C487.578 56.2975 489.882 56.8095 492.314 56.8095C495.834 56.8095 499.002 55.9775 501.818 54.3135C504.698 52.5855 506.97 50.3775 508.634 47.6895C508.954 47.1775 509.402 46.7935 509.978 46.5375C510.618 46.2815 511.258 46.2815 511.898 46.5375L525.53 51.9135C526.106 52.1695 526.49 52.5855 526.682 53.1615C526.874 53.6735 526.81 54.2175 526.49 54.7935Z"></path>
</mask>
<path d="M111.667 5.44955C111.923 4.87355 112.339 4.39355 112.915 4.00955C113.555 3.56156 114.227 3.33756 114.931 3.33756H128.371C129.011 3.33756 129.619 3.56156 130.195 4.00955C130.835 4.39355 131.283 4.87355 131.539 5.44955L159.571 70.7295C159.827 71.3055 159.763 71.9135 159.379 72.5535C159.059 73.1935 158.387 73.5135 157.363 73.5135H140.947C140.243 73.5135 139.571 73.3215 138.931 72.9375C138.355 72.4895 137.907 71.9775 137.587 71.4015L134.995 65.6415C134.675 65.0655 134.195 64.5855 133.555 64.2015C132.979 63.7535 132.371 63.5295 131.731 63.5295H111.475C110.771 63.5295 110.099 63.7535 109.459 64.2015C108.883 64.5855 108.467 65.0655 108.211 65.6415L105.523 71.4015C105.267 71.9775 104.819 72.4895 104.179 72.9375C103.603 73.3215 102.995 73.5135 102.355 73.5135H85.8427C85.5227 73.5135 85.2027 73.4495 84.8827 73.3215C84.4987 73.1935 84.2107 73.0015 84.0187 72.7455C83.7627 72.4895 83.6027 72.1695 83.5387 71.7855C83.4747 71.4015 83.5707 70.9535 83.8267 70.4415L111.667 5.44955ZM117.331 47.2095H125.875C126.515 47.2095 126.963 47.0175 127.219 46.6335C127.539 46.1855 127.539 45.6735 127.219 45.0975C126.579 43.4975 125.811 41.6415 124.915 39.5295C124.019 37.3535 123.187 35.3375 122.419 33.4815C122.163 32.9055 121.875 32.6175 121.555 32.6175C121.235 32.6175 120.947 32.9055 120.691 33.4815L115.891 45.0975C115.635 45.6735 115.635 46.1855 115.891 46.6335C116.147 47.0175 116.627 47.2095 117.331 47.2095ZM216.378 58.1535V71.2095C216.378 71.8495 216.154 72.3935 215.706 72.8415C215.258 73.2895 214.714 73.5135 214.074 73.5135H166.17C165.466 73.5135 164.89 73.2895 164.442 72.8415C164.058 72.3935 163.866 71.8495 163.866 71.2095V5.54556C163.866 4.90555 164.058 4.36155 164.442 3.91356C164.89 3.46555 165.466 3.24155 166.17 3.24155H180.57C181.21 3.24155 181.754 3.46555 182.202 3.91356C182.65 4.36155 182.874 4.90555 182.874 5.54556V53.5455C182.874 54.1855 183.066 54.7295 183.45 55.1775C183.898 55.6255 184.474 55.8495 185.178 55.8495H214.074C214.714 55.8495 215.258 56.0735 215.706 56.5215C216.154 56.9695 216.378 57.5135 216.378 58.1535ZM246.011 5.44955C246.267 4.87355 246.683 4.39355 247.259 4.00955C247.899 3.56156 248.571 3.33756 249.275 3.33756H262.715C263.355 3.33756 263.963 3.56156 264.539 4.00955C265.179 4.39355 265.627 4.87355 265.883 5.44955L293.915 70.7295C294.171 71.3055 294.107 71.9135 293.723 72.5535C293.403 73.1935 292.731 73.5135 291.707 73.5135H275.291C274.587 73.5135 273.915 73.3215 273.275 72.9375C272.699 72.4895 272.251 71.9775 271.931 71.4015L269.339 65.6415C269.019 65.0655 268.539 64.5855 267.899 64.2015C267.323 63.7535 266.715 63.5295 266.075 63.5295H245.819C245.115 63.5295 244.443 63.7535 243.803 64.2015C243.227 64.5855 242.811 65.0655 242.555 65.6415L239.867 71.4015C239.611 71.9775 239.163 72.4895 238.523 72.9375C237.947 73.3215 237.339 73.5135 236.699 73.5135H220.187C219.867 73.5135 219.547 73.4495 219.227 73.3215C218.843 73.1935 218.555 73.0015 218.363 72.7455C218.107 72.4895 217.947 72.1695 217.883 71.7855C217.819 71.4015 217.915 70.9535 218.171 70.4415L246.011 5.44955ZM251.675 47.2095H260.219C260.859 47.2095 261.307 47.0175 261.563 46.6335C261.883 46.1855 261.883 45.6735 261.563 45.0975C260.923 43.4975 260.155 41.6415 259.259 39.5295C258.363 37.3535 257.531 35.3375 256.763 33.4815C256.507 32.9055 256.219 32.6175 255.899 32.6175C255.579 32.6175 255.291 32.9055 255.035 33.4815L250.235 45.0975C249.979 45.6735 249.979 46.1855 250.235 46.6335C250.491 47.0175 250.971 47.2095 251.675 47.2095ZM416.291 20.9055H402.851C402.211 20.9055 401.667 21.1295 401.219 21.5775C400.771 22.0255 400.547 22.5695 400.547 23.2095V71.2095C400.547 71.8495 400.323 72.3935 399.875 72.8415C399.491 73.2895 398.947 73.5135 398.243 73.5135H383.843C383.203 73.5135 382.659 73.2895 382.211 72.8415C381.763 72.3935 381.539 71.8495 381.539 71.2095V23.2095C381.539 22.5695 381.315 22.0255 380.867 21.5775C380.483 21.1295 379.939 20.9055 379.235 20.9055H365.603C364.963 20.9055 364.419 20.6815 363.971 20.2335C363.523 19.7855 363.299 19.2415 363.299 18.6015V5.54556C363.299 4.90555 363.523 4.36155 363.971 3.91356C364.419 3.46555 364.963 3.24155 365.603 3.24155H416.291C416.995 3.24155 417.539 3.46555 417.923 3.91356C418.371 4.36155 418.595 4.90555 418.595 5.54556V18.6015C418.595 19.2415 418.371 19.7855 417.923 20.2335C417.539 20.6815 416.995 20.9055 416.291 20.9055ZM443.561 73.5135H429.065C428.361 73.5135 427.785 73.2895 427.337 72.8415C426.953 72.3935 426.761 71.8495 426.761 71.2095V5.64156C426.761 5.00156 426.953 4.45756 427.337 4.00955C427.785 3.56156 428.361 3.33756 429.065 3.33756H443.561C444.201 3.33756 444.745 3.56156 445.193 4.00955C445.641 4.45756 445.865 5.00156 445.865 5.64156V71.2095C445.865 71.8495 445.641 72.3935 445.193 72.8415C444.745 73.2895 444.201 73.5135 443.561 73.5135ZM526.49 54.7935C524.634 57.8015 522.586 60.5535 520.346 63.0495C518.106 65.4815 515.578 67.5615 512.762 69.2895C510.01 71.0175 506.938 72.3615 503.546 73.3215C500.154 74.2815 496.41 74.7615 492.314 74.7615C487.194 74.7615 482.394 73.8015 477.914 71.8815C473.434 69.9615 469.498 67.3695 466.106 64.1055C462.778 60.8415 460.154 57.0015 458.234 52.5855C456.314 48.1695 455.354 43.4655 455.354 38.4735C455.354 33.4815 456.314 28.7775 458.234 24.3615C460.154 19.9455 462.778 16.1055 466.106 12.8415C469.498 9.57753 473.434 6.98553 477.914 5.06555C482.394 3.14555 487.194 2.18555 492.314 2.18555C496.538 2.18555 500.346 2.66555 503.738 3.62555C507.13 4.58555 510.202 5.92955 512.954 7.65753C515.706 9.38553 518.17 11.4975 520.346 13.9935C522.586 16.4255 524.634 19.1135 526.49 22.0575C526.81 22.5695 526.874 23.1135 526.682 23.6895C526.49 24.2655 526.106 24.6815 525.53 24.9375L511.898 30.3135C511.258 30.5695 510.618 30.5695 509.978 30.3135C509.338 30.0575 508.858 29.6735 508.538 29.1615C506.682 26.2175 504.442 23.9775 501.818 22.4415C499.194 20.8415 496.026 20.0415 492.314 20.0415C489.882 20.0415 487.578 20.5535 485.402 21.5775C483.29 22.6015 481.434 23.9775 479.834 25.7055C478.234 27.3695 476.986 29.3215 476.09 31.5615C475.194 33.8015 474.746 36.1055 474.746 38.4735C474.746 40.9055 475.194 43.2415 476.09 45.4815C476.986 47.6575 478.234 49.5775 479.834 51.2415C481.434 52.9055 483.29 54.2495 485.402 55.2735C487.578 56.2975 489.882 56.8095 492.314 56.8095C495.834 56.8095 499.002 55.9775 501.818 54.3135C504.698 52.5855 506.97 50.3775 508.634 47.6895C508.954 47.1775 509.402 46.7935 509.978 46.5375C510.618 46.2815 511.258 46.2815 511.898 46.5375L525.53 51.9135C526.106 52.1695 526.49 52.5855 526.682 53.1615C526.874 53.6735 526.81 54.2175 526.49 54.7935Z" fill="white" stroke="white" stroke-width="2" mask="url(#path-2-inside-2_2001_91)"></path>
<path d="M53.4306 30.7665C53.4306 30.7665 57.2246 26.8888 57.2658 23.93L60.3919 26.5979L73.8563 11.5081C73.8563 11.5081 57.558 -4.16614 32.7964 3.92127C32.7964 3.92127 9.20354 11.7564 9.45314 37.2683C9.45314 37.2683 21.7914 31.0161 25.7103 31.9338L20.7968 28.5155L14.3733 30.5155L19.5418 25.1797C19.5418 25.1797 22.4634 22.0961 25.7953 23.262L30.7088 24.93C30.7088 24.93 42.2623 12.2159 55.886 19.0112C55.886 19.0112 55.0892 33.7252 35.8335 35.8938L34.4883 40.7702C34.4883 40.7702 33.8004 44.4593 29.9558 44.7727L21.6772 45.3344L26.9891 41.3638L27.6531 35.5499C27.6531 35.5499 13.0838 39.7729 11.3336 48.7752C11.3336 48.7752 16.2723 72.0973 46.7907 72.659C46.7907 72.659 65.6108 73.2845 76.8031 61.654V30.7665H53.4306ZM56.3694 51.7964C56.3694 51.7964 40.6859 59.5598 32.3701 46.8616C32.3701 46.8616 36.872 46.017 37.7471 37.9509C37.7471 37.9509 42.4575 37.3679 44.573 36.2245V49.0661H56.3694V51.7964Z" fill="white" stroke="white" stroke-width="2" stroke-linejoin="round"></path>
<path d="M42.4131 21.9297C44.4962 21.9299 46.1846 23.6189 46.1846 25.7021C46.1844 27.7852 44.4961 29.4734 42.4131 29.4736C40.3299 29.4736 38.6408 27.7853 38.6406 25.7021C38.6406 23.6188 40.3298 21.9297 42.4131 21.9297Z" fill="white" stroke="white"></path>
<path d="M12.2062 39.7705C12.2062 39.7705 -3.80127 51.2748 21.8354 72.16H9.14262C9.14262 72.16 -10.4916 54.7143 12.2062 39.7705Z" fill="white" stroke="white" stroke-width="2" stroke-linejoin="round"></path>
<path d="M312.16 4.01562C326.621 -1.61599 337.565 1.58627 344.902 6.1748C348.579 8.4742 351.355 11.1271 353.213 13.2051C354.141 14.2435 354.839 15.1366 355.303 15.7686C355.478 16.0074 355.619 16.2096 355.728 16.3672L340.335 27.1211C334.692 20.8323 329.034 19.3298 324.728 19.4551C322.548 19.5185 320.731 19.9978 319.459 20.4619C318.823 20.6941 318.321 20.9234 317.976 21.0957C317.803 21.1819 317.669 21.2543 317.577 21.3057C317.532 21.3312 317.496 21.3517 317.472 21.3662C317.459 21.3734 317.449 21.3786 317.442 21.3828C317.439 21.3849 317.436 21.3874 317.434 21.3887L317.432 21.3896L317.431 21.3906C317.432 21.3932 317.45 21.4236 317.684 21.8027L317.43 21.3906L317.423 21.3955L317.415 21.4004C310.866 25.7586 308.846 31.1573 308.486 35.4805C308.308 37.6325 308.54 39.5091 308.817 40.8477C308.956 41.5173 309.107 42.054 309.224 42.4258C309.282 42.6116 309.331 42.7568 309.367 42.8564C309.385 42.9062 309.4 42.9449 309.41 42.9717C309.415 42.985 309.419 42.9955 309.422 43.0029C309.423 43.0066 309.425 43.0095 309.426 43.0117C309.426 43.0128 309.426 43.0139 309.427 43.0146V43.0156C309.427 43.016 309.428 43.0166 309.892 42.8301L309.428 43.0166L309.562 43.3516L309.923 43.3291L312.148 43.1895L312.846 43.1465L312.58 42.5C312.315 41.8567 312.099 41.1973 311.93 40.5273C311.979 40.6368 312.033 40.7422 312.094 40.8418C312.406 41.3562 312.846 41.7493 313.185 42.0107C313.356 42.1432 313.508 42.2479 313.609 42.3174C313.64 42.3384 313.663 42.3544 313.68 42.3662C313.696 42.3801 313.71 42.3953 313.727 42.4092L314.36 42.9531L314.54 42.1377C314.542 42.1306 314.542 42.1232 314.543 42.1162C314.553 42.1982 314.565 42.2801 314.582 42.3613L314.649 42.6904L314.979 42.7529C315.907 42.93 316.867 42.8405 317.747 42.4951L317.854 42.4531L317.933 42.3682C317.982 42.3143 318.024 42.2572 318.062 42.2002L318.043 42.5059L318.672 42.3945C327.621 40.8085 336.433 38.5199 345.022 35.5488L344.789 34.5811L339.227 35.3691L339.212 35.3711L339.198 35.374C338.675 35.478 338.468 35.4224 338.412 35.3965C338.411 35.385 338.409 35.366 338.411 35.3379C338.421 35.2174 338.479 35.0557 338.557 34.8984C338.589 34.8324 338.62 34.7749 338.646 34.7324L342.733 31.9053H342.734C344.63 30.5864 345.745 30.7779 346.352 31.1191C346.68 31.3041 346.916 31.563 347.071 31.7832C347.148 31.8922 347.204 31.9881 347.238 32.0547C347.255 32.0878 347.267 32.1133 347.274 32.1289C347.278 32.1366 347.28 32.1419 347.281 32.1445C347.282 32.1457 347.282 32.1465 347.282 32.1465L347.439 32.54L347.856 32.4453C349.079 32.1674 350.306 31.9146 351.538 31.6885C351.091 31.8341 350.682 32.0818 350.345 32.415L350.344 32.416C349.917 32.839 349.626 33.3799 349.508 33.9688C349.389 34.5573 349.449 35.1681 349.679 35.7236C349.909 36.2789 350.299 36.7533 350.798 37.0859H350.799C351.283 37.4079 351.85 37.5814 352.431 37.5898V37.5928C352.434 37.5928 352.437 37.5917 352.44 37.5918V37.5928H352.486V37.5918L352.488 37.5928L352.487 37.5908C352.866 37.5907 353.242 37.5213 353.595 37.3818C353.965 37.2354 354.303 37.0171 354.589 36.7393C354.874 36.4616 355.102 36.1297 355.259 35.7637L355.26 35.7627C355.415 35.3972 355.497 35.0038 355.501 34.6055L355.5 34.6045C355.508 34.0042 355.337 33.4155 355.01 32.9131C354.682 32.4101 354.213 32.0155 353.659 31.7803H353.658C353.251 31.6072 352.812 31.5263 352.373 31.541C354.118 31.2378 355.873 30.986 357.634 30.7871C359.068 30.7199 360.143 30.7573 360.93 30.8672C361.732 30.9793 362.181 31.1605 362.41 31.335C362.602 31.4809 362.635 31.6129 362.615 31.7676C362.589 31.9718 362.455 32.2526 362.184 32.5986C361.648 33.2818 360.75 34.0085 359.952 34.582C359.559 34.8647 359.2 35.1026 358.939 35.2715C358.809 35.3556 358.704 35.4229 358.63 35.4697C358.594 35.4927 358.562 35.5125 358.54 35.5264C358.533 35.5309 358.525 35.536 358.518 35.541C352.63 38.9128 349.507 39.4669 347.908 39.2666C347.126 39.1686 346.717 38.8918 346.508 38.6816C346.4 38.5735 346.336 38.4746 346.302 38.4092L346.27 38.3389V38.3398L346.145 37.877L345.676 37.9844C328.037 42.0219 316.69 43.8487 309.59 44.3252C306.037 44.5636 303.576 44.4621 301.933 44.1426C300.265 43.8182 299.569 43.2958 299.33 42.8223C299.1 42.3671 299.195 41.7513 299.668 40.96C300.132 40.1853 300.888 39.3674 301.716 38.6094C302.539 37.8561 303.408 37.1841 304.074 36.6992C304.407 36.4572 304.687 36.2624 304.884 36.1289C304.982 36.0623 305.059 36.0111 305.111 35.9766C305.137 35.9593 305.158 35.9461 305.171 35.9375C305.178 35.9332 305.182 35.9298 305.186 35.9277C305.187 35.9267 305.189 35.9262 305.189 35.9258V35.9248L304.7 35.0547C301.73 36.5017 299.615 37.8067 298.2 38.9883C296.797 40.1602 296.016 41.2666 295.853 42.3311C295.682 43.4397 296.198 44.3592 297.031 45.084C297.854 45.7994 299.033 46.3739 300.351 46.8408C302.994 47.7774 306.367 48.3402 309.057 48.6699C310.406 48.8353 311.592 48.9434 312.441 49.0098C312.866 49.0429 313.207 49.0655 313.441 49.0801C313.513 49.0845 313.575 49.0878 313.627 49.0908C317.106 52.314 320.532 53.8344 323.732 54.2656C326.97 54.7017 329.934 54.0193 332.435 52.9297C334.933 51.841 336.981 50.3403 338.401 49.1162C339.113 48.5032 339.67 47.9566 340.05 47.5625C340.164 47.4443 340.26 47.3378 340.342 47.249L355.985 57.4639C351.14 64.2692 344.501 68.1455 339.009 70.3242C336.209 71.435 333.714 72.1021 331.922 72.4912C331.026 72.6857 330.306 72.8107 329.812 72.8867C329.565 72.9247 329.374 72.9506 329.246 72.9668C329.182 72.9749 329.134 72.9808 329.103 72.9844C329.097 72.985 329.092 72.9848 329.087 72.9854C313.658 72.9044 304.501 66.6066 299.192 60.3564C296.531 57.2232 294.831 54.094 293.797 51.749C293.28 50.5769 292.929 49.602 292.709 48.9229C292.599 48.5834 292.521 48.3178 292.472 48.1387C292.447 48.0494 292.429 47.9814 292.418 47.9365C292.412 47.9143 292.408 47.8974 292.405 47.8867C292.404 47.8814 292.403 47.8773 292.402 47.875L292.401 47.873V47.8721L292.399 47.8643L292.397 47.8555C288.061 32.0149 293.015 21.0734 299.035 14.0771C302.053 10.5706 305.344 8.05008 307.882 6.40625C309.15 5.5849 310.228 4.98388 310.987 4.58887C311.367 4.39139 311.667 4.24537 311.87 4.14941C311.971 4.10162 312.049 4.06619 312.101 4.04297C312.126 4.03141 312.146 4.02212 312.158 4.0166L312.16 4.01562ZM325.892 22.2861C326.761 22.2892 327.585 22.3829 328.353 22.5361C328.859 22.6373 329.343 22.7649 329.802 22.9092C329.348 22.9238 328.937 23.0759 328.594 23.2715C328.133 23.5337 327.761 23.8898 327.509 24.165C327.381 24.3043 327.279 24.427 327.21 24.5117C327.129 24.5353 327.021 24.5687 326.896 24.6074C326.641 24.687 326.308 24.7938 325.978 24.9004C325.647 25.0071 325.319 25.114 325.073 25.1943C324.97 25.2282 324.881 25.2569 324.812 25.2793C323.875 24.9976 323.128 24.9547 322.532 25.1035C321.886 25.2652 321.466 25.6396 321.21 26.0664C320.968 26.4696 320.881 26.9041 320.85 27.2246C320.396 27.2157 320.013 27.3032 319.699 27.4854C319.254 27.7438 319.024 28.1452 318.913 28.5225C318.814 28.8594 318.804 29.1968 318.816 29.4531C317.887 29.6071 317.169 29.9109 316.622 30.3125C315.978 30.7854 315.598 31.372 315.381 31.9385C315.166 32.5001 315.112 33.0395 315.109 33.4336C315.108 33.6319 315.12 33.7973 315.133 33.915C315.139 33.974 315.146 34.0216 315.151 34.0557C315.154 34.0726 315.156 34.0865 315.158 34.0967C315.159 34.1017 315.16 34.1061 315.16 34.1094C315.16 34.1109 315.161 34.1122 315.161 34.1133V34.1162L315.191 34.2705L315.304 34.3789C315.471 34.5416 315.595 34.7442 315.664 34.9678V34.9688C315.733 35.1922 315.746 35.4293 315.7 35.6582C315.655 35.8872 315.552 36.1012 315.402 36.2803L315.401 36.2812C315.252 36.4605 315.059 36.5994 314.842 36.6855L314.526 36.8105V38.5098L314.899 38.6074C315.001 38.6342 315.095 38.6854 315.172 38.7549V38.7539C315.25 38.8242 315.311 38.9125 315.349 39.0107C315.386 39.1072 315.398 39.2132 315.387 39.3193C315.376 39.4183 315.341 39.5136 315.287 39.5986C314.975 39.9692 314.748 40.4043 314.624 40.873V40.874C314.54 41.1953 314.505 41.5265 314.521 41.8564C314.502 41.8054 314.481 41.7703 314.474 41.7578C314.443 41.7088 314.41 41.6746 314.396 41.6602C314.364 41.6285 314.331 41.6031 314.313 41.5898C314.311 41.5879 314.308 41.586 314.306 41.584C313.797 41.1256 313.546 40.6604 313.439 40.2256C313.327 39.7642 313.368 39.3037 313.483 38.8809C313.599 38.457 313.787 38.086 313.949 37.8184C314.03 37.6856 314.102 37.5808 314.153 37.5107C314.179 37.476 314.199 37.4501 314.212 37.4336C314.218 37.4256 314.223 37.4194 314.226 37.416C314.227 37.4146 314.228 37.4136 314.229 37.4131H314.228L314.306 37.3193L314.332 37.2002L314.355 37.0957L314.625 35.8711L314.861 35.6719C314.714 35.432 314.661 35.1457 314.714 34.8701C314.768 34.5929 314.924 34.3466 315.149 34.1797L314.675 33.3105H314.673C314.672 33.3108 314.671 33.3121 314.67 33.3125C314.668 33.3132 314.666 33.3144 314.663 33.3154C314.657 33.3178 314.648 33.3202 314.639 33.3242C314.619 33.3322 314.593 33.344 314.562 33.3584C314.498 33.3871 314.412 33.4289 314.314 33.4844C314.191 33.5546 314.039 33.6547 313.891 33.7832L313.602 33.3418C313.601 33.3411 313.6 33.3402 313.6 33.3389C313.597 33.3349 313.593 33.3277 313.587 33.3184C313.577 33.3019 313.563 33.2773 313.545 33.2461C313.494 33.0466 313.476 32.8392 313.49 32.6318C313.509 32.357 313.584 32.0877 313.713 31.8428C313.842 31.5989 314.021 31.3856 314.238 31.2158H314.239C314.456 31.0456 314.706 30.9228 314.974 30.8555L314.838 29.8701C314.124 29.8902 313.555 30.0176 313.121 30.2471C313.491 29.5351 313.92 28.852 314.405 28.2061C314.869 27.6882 315.333 27.2124 315.794 26.7744C315.625 27.0248 315.497 27.2879 315.405 27.5518C315.189 28.1735 315.158 28.7982 315.176 29.2549C315.185 29.4854 315.207 29.6793 315.228 29.8174C315.238 29.8866 315.248 29.943 315.255 29.9824C315.259 30.002 315.261 30.0179 315.264 30.0293C315.265 30.0349 315.266 30.0395 315.267 30.043C315.267 30.0447 315.267 30.0466 315.268 30.0479V30.0488L315.269 30.0498L316.244 30.0527C316.452 29.1423 316.908 28.3072 317.563 27.6426C318.176 27.0217 318.939 26.5746 319.776 26.3389L319.934 26.3535L320.087 26.2402L320.134 26.2051L319.817 25.5283L319.835 25.3408C319.798 25.3375 319.762 25.3359 319.726 25.333L319.719 25.3174C319.703 25.3212 319.687 25.3262 319.672 25.3301C318.517 25.2454 317.622 25.4095 316.94 25.7607C317.946 24.9348 318.938 24.2846 319.909 23.7812C319.906 23.7867 319.902 23.7923 319.898 23.7979C319.728 24.0603 319.653 24.3449 319.623 24.5488C319.608 24.6528 319.602 24.7484 319.603 24.8252C319.603 24.8599 319.606 24.9084 319.614 24.958C319.617 24.9729 319.627 25.038 319.663 25.1094C319.676 25.1356 319.733 25.2478 319.866 25.3232C319.945 25.3677 320.048 25.3976 320.164 25.3857C320.276 25.3742 320.361 25.3275 320.416 25.2861L320.536 25.1963L320.586 25.0537C320.718 24.6808 321.022 24.4978 321.37 24.4072C321.538 24.3635 321.7 24.3458 321.824 24.3408L322.081 24.457L322.317 24.2783L322.363 24.2432L322.542 24.1074L323.408 24.5684C323.563 24.3306 323.767 24.1295 324.007 23.9795C324.246 23.8296 324.516 23.7336 324.798 23.6992C325.079 23.665 325.364 23.6931 325.634 23.7812C325.902 23.8693 326.149 24.0151 326.355 24.209L327.116 23.5723C326.723 22.9665 326.315 22.5412 325.892 22.2861ZM312.185 32.4961C312.253 32.8156 312.365 33.1058 312.466 33.3291C312.518 33.4443 312.569 33.5462 312.614 33.6299C312.631 33.6833 312.649 33.7365 312.668 33.7891L312.789 34.1152H313.581C313.407 34.3604 313.278 34.6859 313.33 35.0762C313.385 35.4826 313.626 35.8671 314.025 36.2354L313.562 36.5918C312.549 37.3707 311.989 38.1348 311.788 38.8838C311.733 39.0894 311.707 39.2879 311.704 39.4785C311.564 38.6794 311.49 37.8694 311.484 37.0566C311.65 37.2729 311.872 37.4809 312.146 37.6816L312.783 36.9131L312.788 36.918C312.786 36.9163 312.781 36.9111 312.774 36.9033C312.761 36.8876 312.738 36.86 312.713 36.8223C312.661 36.746 312.602 36.6328 312.568 36.4883C312.508 36.2267 312.511 35.7579 313.067 35.0967L312.471 34.3223V34.3232H312.469L312.467 34.3252C312.465 34.3262 312.461 34.3275 312.458 34.3291C312.452 34.3322 312.444 34.3367 312.434 34.3418C312.413 34.3523 312.385 34.3668 312.351 34.3857C312.283 34.4234 312.19 34.4778 312.086 34.5488C311.95 34.642 311.783 34.7731 311.626 34.9375C311.742 34.1062 311.929 33.2896 312.185 32.4961ZM327.53 24.4619C327.511 24.4602 327.494 24.4569 327.479 24.457C327.495 24.4568 327.512 24.4603 327.53 24.4619ZM322.986 24.2959L322.988 24.2969L322.543 24.1064L322.544 24.1055L322.986 24.2959ZM331.5 23.5605C331.9 23.7427 332.268 23.9322 332.6 24.1162C332.402 24.0993 332.205 24.0888 332.007 24.082C331.841 23.8816 331.672 23.7076 331.5 23.5605ZM323.713 22.4727C323.362 22.7556 323.089 23.1192 322.898 23.418L322.106 23.3467H322.103C322.101 23.3465 322.098 23.3459 322.096 23.3457C322.091 23.3453 322.084 23.3452 322.076 23.3447C322.063 23.3439 322.045 23.3426 322.024 23.3418C321.76 23.2399 321.512 23.1787 321.281 23.1592C322.114 22.8343 322.926 22.6115 323.713 22.4727Z" fill="white" stroke="white"></path>
<mask id="path-7-inside-3_2001_91" fill="white">
<path d="M317.123 35.3311C317.123 35.3311 320.808 34.7747 319.626 30.5674C319.626 30.5674 322.732 35.2152 317.123 35.3311Z"></path>
</mask>
<path d="M317.123 35.3311C317.123 35.3311 320.808 34.7747 319.626 30.5674C319.626 30.5674 322.732 35.2152 317.123 35.3311Z" fill="white"></path>
<path d="M317.123 35.3311L316.974 34.3423L317.144 36.3309L317.123 35.3311ZM319.626 30.5674L320.458 30.0118L318.663 30.8379L319.626 30.5674ZM317.123 35.3311C317.272 36.3199 317.273 36.3198 317.274 36.3197C317.274 36.3197 317.274 36.3196 317.275 36.3195C317.276 36.3194 317.277 36.3192 317.278 36.3191C317.28 36.3188 317.282 36.3184 317.284 36.318C317.289 36.3173 317.295 36.3163 317.301 36.3152C317.315 36.3129 317.332 36.3099 317.352 36.306C317.392 36.2983 317.446 36.2872 317.511 36.2718C317.64 36.241 317.816 36.1927 318.02 36.1191C318.422 35.9739 318.964 35.7202 319.47 35.2853C319.984 34.843 320.457 34.2158 320.697 33.3549C320.935 32.4989 320.923 31.4851 320.589 30.2969L319.626 30.5674L318.663 30.8379C318.921 31.7533 318.89 32.3868 318.77 32.8184C318.651 33.2451 318.425 33.5459 318.166 33.7687C317.898 33.9988 317.593 34.1471 317.341 34.2377C317.218 34.2821 317.115 34.31 317.048 34.3261C317.014 34.3341 316.99 34.3391 316.976 34.3416C316.97 34.3428 316.966 34.3435 316.966 34.3435C316.965 34.3436 316.966 34.3435 316.967 34.3433C316.968 34.3432 316.969 34.343 316.97 34.3429C316.97 34.3428 316.971 34.3427 316.972 34.3426C316.972 34.3426 316.973 34.3425 316.973 34.3425C316.973 34.3424 316.974 34.3423 317.123 35.3311ZM319.626 30.5674C318.795 31.123 318.794 31.1227 318.794 31.1224C318.794 31.1223 318.794 31.122 318.794 31.1218C318.794 31.1215 318.793 31.1213 318.793 31.1211C318.793 31.1207 318.793 31.1206 318.793 31.1208C318.793 31.1211 318.794 31.1225 318.796 31.1248C318.799 31.1296 318.805 31.1385 318.813 31.1511C318.828 31.1765 318.853 31.2167 318.884 31.2697C318.946 31.3763 319.03 31.5311 319.117 31.7172C319.297 32.1047 319.454 32.5594 319.48 32.9697C319.505 33.3575 319.414 33.6109 319.208 33.7977C318.966 34.0173 318.393 34.3046 317.102 34.3313L317.123 35.3311L317.144 36.3309C318.658 36.2996 319.799 35.9625 320.553 35.278C321.342 34.5608 321.526 33.6305 321.476 32.8418C321.427 32.0757 321.157 31.3612 320.93 30.8736C320.813 30.6222 320.699 30.413 320.613 30.2649C320.57 30.1906 320.533 30.1309 320.507 30.0881C320.493 30.0666 320.482 30.0494 320.474 30.0366C320.47 30.0302 320.466 30.0249 320.463 30.0207C320.462 30.0187 320.461 30.0169 320.46 30.0154C320.459 30.0146 320.459 30.014 320.459 30.0134C320.458 30.0131 320.458 30.0127 320.458 30.0125C320.458 30.0121 320.458 30.0118 319.626 30.5674Z" fill="white" mask="url(#path-7-inside-3_2001_91)"></path>
<mask id="path-9-inside-4_2001_91" fill="white">
<path d="M321.551 31.2968C321.953 31.2395 322.329 31.0665 322.633 30.7989C322.938 30.5313 323.158 30.1807 323.267 29.79C323.267 29.79 323.835 31.772 321.551 31.2968Z"></path>
</mask>
<path d="M321.551 31.2968C321.953 31.2395 322.329 31.0665 322.633 30.7989C322.938 30.5313 323.158 30.1807 323.267 29.79C323.267 29.79 323.835 31.772 321.551 31.2968Z" fill="white"></path>
<path d="M321.551 31.2968L321.41 30.3068L321.347 32.2759L321.551 31.2968ZM322.633 30.7989L321.973 30.0472L321.972 30.0483L322.633 30.7989ZM323.267 29.79L324.228 29.5146L323.254 26.115L322.304 29.5213L323.267 29.79ZM321.551 31.2968L321.692 32.2868C322.286 32.2021 322.843 31.9462 323.294 31.5496L322.633 30.7989L321.972 30.0483C321.815 30.1868 321.619 30.2769 321.41 30.3068L321.551 31.2968ZM322.633 30.7989L323.292 31.5506C323.744 31.1545 324.069 30.6359 324.23 30.0588L323.267 29.79L322.304 29.5213C322.247 29.7256 322.132 29.9082 321.973 30.0472L322.633 30.7989ZM323.267 29.79C322.305 30.0655 322.305 30.0651 322.305 30.0646C322.305 30.0645 322.305 30.064 322.305 30.0637C322.305 30.0632 322.305 30.0626 322.305 30.0621C322.304 30.061 322.304 30.0601 322.304 30.0593C322.303 30.0576 322.303 30.0564 322.303 30.0555C322.302 30.0538 322.302 30.0536 322.303 30.0549C322.303 30.0574 322.305 30.0654 322.308 30.0778C322.313 30.1032 322.32 30.143 322.325 30.1903C322.335 30.2997 322.326 30.3765 322.315 30.4091C322.312 30.4184 322.315 30.4056 322.332 30.3848C322.341 30.3747 322.351 30.3655 322.361 30.3581C322.37 30.3508 322.377 30.3479 322.377 30.3479C322.373 30.3494 322.216 30.4138 321.754 30.3178L321.551 31.2968L321.347 32.2759C322.027 32.4174 322.656 32.4123 323.188 32.1758C323.76 31.922 324.072 31.4693 324.215 31.0342C324.348 30.6307 324.339 30.2417 324.315 29.9943C324.302 29.8632 324.283 29.7518 324.266 29.6708C324.257 29.6299 324.249 29.5957 324.243 29.5695C324.239 29.5563 324.236 29.5451 324.234 29.5359C324.233 29.5313 324.232 29.5272 324.231 29.5237C324.23 29.5219 324.23 29.5202 324.229 29.5187C324.229 29.518 324.229 29.5172 324.229 29.5165C324.229 29.5162 324.228 29.5157 324.228 29.5155C324.228 29.515 324.228 29.5146 323.267 29.79Z" fill="white" mask="url(#path-9-inside-4_2001_91)"></path>
<mask id="path-11-inside-5_2001_91" fill="white">
<path d="M322.016 27.8899C322.607 28.0143 323.224 27.9255 323.756 27.6392C324.289 27.3528 324.703 26.8874 324.925 26.3252C324.925 26.3252 324.763 29.5937 322.016 27.8899Z"></path>
</mask>
<path d="M322.016 27.8899C322.607 28.0143 323.224 27.9255 323.756 27.6392C324.289 27.3528 324.703 26.8874 324.925 26.3252C324.925 26.3252 324.763 29.5937 322.016 27.8899Z" fill="white"></path>
<path d="M322.016 27.8899L322.222 26.9113L321.489 28.7397L322.016 27.8899ZM323.756 27.6392L323.282 26.7583L323.282 26.7586L323.756 27.6392ZM324.925 26.3252L325.923 26.3747L323.995 25.9579L324.925 26.3252ZM322.016 27.8899L321.81 28.8685C322.632 29.0415 323.489 28.918 324.23 28.5198L323.756 27.6392L323.282 26.7586C322.958 26.933 322.582 26.9871 322.222 26.9113L322.016 27.8899ZM323.756 27.6392L324.229 28.5201C324.97 28.1219 325.546 27.4747 325.855 26.6925L324.925 26.3252L323.995 25.9579C323.859 26.3001 323.607 26.5837 323.282 26.7583L323.756 27.6392ZM324.925 26.3252C323.926 26.2757 323.926 26.2753 323.926 26.2749C323.926 26.2748 323.926 26.2744 323.926 26.2741C323.926 26.2737 323.926 26.2733 323.926 26.2729C323.926 26.2721 323.926 26.2716 323.926 26.2712C323.926 26.2704 323.926 26.2704 323.926 26.271C323.926 26.2723 323.926 26.2763 323.925 26.2828C323.924 26.2958 323.922 26.3186 323.919 26.3492C323.912 26.4111 323.899 26.5013 323.877 26.6059C323.831 26.8296 323.756 27.0525 323.656 27.2102C323.565 27.3532 323.504 27.3713 323.465 27.3778C323.396 27.3892 323.121 27.399 322.543 27.0401L322.016 27.8899L321.489 28.7397C322.283 29.2327 323.059 29.4729 323.793 29.3506C324.557 29.2235 325.051 28.7439 325.344 28.2828C325.628 27.8363 325.766 27.3486 325.835 27.0126C325.872 26.8374 325.893 26.6856 325.906 26.5754C325.912 26.52 325.916 26.4742 325.919 26.4402C325.92 26.4232 325.921 26.409 325.922 26.398C325.922 26.3925 325.923 26.3878 325.923 26.3839C325.923 26.382 325.923 26.3802 325.923 26.3787C325.923 26.3779 325.923 26.3772 325.923 26.3765C325.923 26.3762 325.923 26.3757 325.923 26.3756C325.923 26.3751 325.923 26.3747 324.925 26.3252Z" fill="white" mask="url(#path-11-inside-5_2001_91)"></path>
<mask id="path-13-inside-6_2001_91" fill="white">
<path d="M326.105 28.3882C326.626 28.5209 327.172 28.5137 327.689 28.3671C328.206 28.2206 328.676 27.9399 329.049 27.5537C329.049 27.5537 328.562 30.1383 326.105 28.3882Z"></path>
</mask>
<path d="M326.105 28.3882C326.626 28.5209 327.172 28.5137 327.689 28.3671C328.206 28.2206 328.676 27.9399 329.049 27.5537C329.049 27.5537 328.562 30.1383 326.105 28.3882Z" fill="white"></path>
<path d="M326.105 28.3882L326.352 27.4191L325.525 29.2027L326.105 28.3882ZM327.689 28.3671L327.417 27.405L327.417 27.405L327.689 28.3671ZM329.049 27.5537L330.032 27.7389L330.651 24.4564L328.33 26.859L329.049 27.5537ZM326.105 28.3882L325.859 29.3573C326.55 29.5334 327.275 29.5239 327.962 29.3292L327.689 28.3671L327.417 27.405C327.069 27.5035 326.703 27.5084 326.352 27.4191L326.105 28.3882ZM327.689 28.3671L327.962 29.3292C328.648 29.1348 329.273 28.7622 329.769 28.2484L329.049 27.5537L328.33 26.859C328.08 27.1176 327.765 27.3064 327.417 27.405L327.689 28.3671ZM329.049 27.5537C328.067 27.3685 328.067 27.3681 328.067 27.3676C328.067 27.3674 328.067 27.367 328.067 27.3667C328.067 27.3661 328.067 27.3655 328.067 27.365C328.068 27.3639 328.068 27.363 328.068 27.3623C328.068 27.3607 328.068 27.3598 328.069 27.3593C328.069 27.3584 328.069 27.3596 328.068 27.3626C328.066 27.3688 328.063 27.3822 328.058 27.4013C328.048 27.4402 328.03 27.4987 328.004 27.5661C327.946 27.7131 327.871 27.8407 327.793 27.9189C327.735 27.9764 327.692 27.997 327.612 27.9962C327.498 27.9951 327.204 27.9431 326.686 27.5737L326.105 28.3882L325.525 29.2027C326.235 29.7083 326.924 29.9896 327.592 29.9961C328.295 30.0029 328.834 29.7055 329.205 29.3356C329.555 28.9864 329.756 28.5773 329.866 28.2944C329.924 28.1467 329.964 28.017 329.989 27.9214C330.002 27.8733 330.012 27.8329 330.019 27.802C330.022 27.7865 330.025 27.7734 330.027 27.7628C330.029 27.7576 330.029 27.7529 330.03 27.7489C330.031 27.7469 330.031 27.7451 330.031 27.7434C330.031 27.7425 330.032 27.7418 330.032 27.741C330.032 27.7406 330.032 27.7401 330.032 27.7399C330.032 27.7394 330.032 27.7389 329.049 27.5537Z" fill="white" mask="url(#path-13-inside-6_2001_91)"></path>
<mask id="path-15-inside-7_2001_91" fill="white">
<path d="M328.402 25.4325C328.812 25.6756 329.29 25.7798 329.764 25.7297C330.238 25.6796 330.683 25.4778 331.033 25.1543C331.033 25.1543 330.094 27.6231 328.402 25.4325Z"></path>
</mask>
<path d="M328.402 25.4325C328.812 25.6756 329.29 25.7798 329.764 25.7297C330.238 25.6796 330.683 25.4778 331.033 25.1543C331.033 25.1543 330.094 27.6231 328.402 25.4325Z" fill="white"></path>
<path d="M328.402 25.4325L328.912 24.5723L327.611 26.0438L328.402 25.4325ZM331.033 25.1543L331.968 25.5098L330.355 24.4199L331.033 25.1543ZM328.402 25.4325L327.892 26.2927C328.488 26.6457 329.182 26.7969 329.869 26.7242L329.764 25.7297L329.659 24.7352C329.399 24.7627 329.137 24.7055 328.912 24.5723L328.402 25.4325ZM329.764 25.7297L329.869 26.7242C330.558 26.6514 331.204 26.3584 331.712 25.8887L331.033 25.1543L330.355 24.4199C330.163 24.5972 329.919 24.7078 329.659 24.7352L329.764 25.7297ZM331.033 25.1543C330.099 24.7988 330.099 24.7984 330.099 24.798C330.099 24.7979 330.099 24.7975 330.099 24.7973C330.099 24.7968 330.1 24.7964 330.1 24.7959C330.1 24.7951 330.1 24.7945 330.101 24.7939C330.101 24.7928 330.101 24.7923 330.101 24.7923C330.101 24.7922 330.1 24.7941 330.099 24.7978C330.096 24.8053 330.09 24.8197 330.081 24.8394C330.062 24.8796 330.033 24.9382 329.995 25.0038C329.911 25.1497 329.818 25.264 329.743 25.3223C329.711 25.3468 329.701 25.3463 329.714 25.3427C329.721 25.3407 329.731 25.3391 329.741 25.3389C329.752 25.3387 329.757 25.34 329.756 25.3397C329.747 25.3377 329.55 25.2818 329.194 24.8212L328.402 25.4325L327.611 26.0438C328.101 26.6785 328.655 27.1355 329.298 27.2867C329.991 27.4494 330.569 27.2102 330.962 26.9074C331.333 26.6224 331.581 26.2563 331.725 26.0078C331.801 25.8762 331.859 25.7591 331.899 25.6728C331.919 25.6293 331.934 25.5928 331.946 25.5652C331.952 25.5513 331.956 25.5397 331.96 25.5304C331.962 25.5257 331.963 25.5217 331.965 25.5182C331.965 25.5165 331.966 25.5149 331.967 25.5135C331.967 25.5128 331.967 25.5122 331.967 25.5116C331.967 25.5112 331.968 25.5108 331.968 25.5106C331.968 25.5102 331.968 25.5098 331.033 25.1543Z" fill="white" mask="url(#path-15-inside-7_2001_91)"></path>
<mask id="path-17-inside-8_2001_91" fill="white">
<path d="M319.232 39.4106C319.354 39.2839 319.446 39.1311 319.5 38.9637C319.554 38.7963 319.57 38.6187 319.545 38.4444C319.521 38.2702 319.457 38.1038 319.358 37.9579C319.26 37.8121 319.13 37.6905 318.977 37.6025C318.977 37.6025 321.202 38.3791 319.232 39.4106Z"></path>
</mask>
<path d="M319.232 39.4106C319.354 39.2839 319.446 39.1311 319.5 38.9637C319.554 38.7963 319.57 38.6187 319.545 38.4444C319.521 38.2702 319.457 38.1038 319.358 37.9579C319.26 37.8121 319.13 37.6905 318.977 37.6025C318.977 37.6025 321.202 38.3791 319.232 39.4106Z" fill="white"></path>
<path d="M319.232 39.4106L318.511 38.717L319.695 40.2965L319.232 39.4106ZM319.545 38.4444L318.554 38.5809L318.555 38.5864L319.545 38.4444ZM319.358 37.9579L318.528 38.5158L318.53 38.5194L319.358 37.9579ZM318.977 37.6025L319.306 36.6584L318.478 38.4694L318.977 37.6025ZM319.232 39.4106L319.952 40.1043C320.178 39.8693 320.35 39.5847 320.451 39.2707L319.5 38.9637L318.548 38.6567C318.541 38.6775 318.529 38.6985 318.511 38.717L319.232 39.4106ZM319.5 38.9637L320.451 39.2707C320.551 38.9618 320.582 38.6307 320.534 38.3025L319.545 38.4444L318.555 38.5864C318.558 38.6068 318.556 38.6309 318.548 38.6567L319.5 38.9637ZM319.545 38.4444L320.535 38.308C320.49 37.9809 320.37 37.6691 320.185 37.3965L319.358 37.9579L318.53 38.5194C318.543 38.5386 318.551 38.5596 318.554 38.5809L319.545 38.4444ZM319.358 37.9579L320.188 37.4001C320.005 37.1279 319.761 36.9003 319.475 36.7357L318.977 37.6025L318.478 38.4694C318.498 38.4808 318.515 38.4964 318.528 38.5158L319.358 37.9579ZM318.977 37.6025C318.647 38.5467 318.647 38.5466 318.646 38.5465C318.646 38.5464 318.646 38.5463 318.646 38.5463C318.645 38.5461 318.645 38.546 318.645 38.5459C318.644 38.5457 318.644 38.5455 318.643 38.5454C318.643 38.5452 318.643 38.5451 318.643 38.5452C318.643 38.5454 318.646 38.5462 318.649 38.5477C318.657 38.5506 318.672 38.5561 318.691 38.5638C318.729 38.5796 318.785 38.6036 318.846 38.6344C318.988 38.7054 319.084 38.7737 319.121 38.8121C319.135 38.8268 319.102 38.7983 319.075 38.7211C319.041 38.6273 319.033 38.5067 319.069 38.3933C319.1 38.2947 319.142 38.2696 319.102 38.3079C319.06 38.347 318.962 38.4229 318.768 38.5247L319.232 39.4106L319.695 40.2965C320.247 40.0078 320.785 39.6042 320.977 38.9927C321.202 38.2765 320.841 37.7152 320.564 37.4274C320.291 37.1428 319.954 36.9524 319.741 36.8456C319.624 36.7875 319.521 36.7427 319.446 36.712C319.408 36.6965 319.376 36.6843 319.353 36.6754C319.341 36.6709 319.331 36.6672 319.323 36.6644C319.319 36.663 319.316 36.6618 319.313 36.6608C319.311 36.6603 319.31 36.6598 319.309 36.6594C319.309 36.6592 319.308 36.6591 319.307 36.6589C319.307 36.6588 319.307 36.6587 319.307 36.6586C319.306 36.6585 319.306 36.6584 318.977 37.6025Z" fill="white" mask="url(#path-17-inside-8_2001_91)"></path>
<path d="M344.006 40.2305C344.405 40.0895 344.834 40.0621 345.245 40.1504L345.42 40.1953C345.883 40.3338 346.29 40.6158 346.582 41L346.712 41.1699L346.925 41.1943L349.098 41.4375C349.087 41.4686 349.077 41.4999 349.063 41.5303C348.991 41.6963 348.884 41.8441 348.751 41.9648C348.616 42.0863 348.458 42.178 348.287 42.2334C348.116 42.2886 347.934 42.3071 347.755 42.2871L347.727 42.2832H340.843C340.829 42.2817 340.811 42.2794 340.788 42.2764C340.733 42.2689 340.655 42.2569 340.569 42.2383C340.384 42.198 340.221 42.1393 340.131 42.0762C340.181 41.9793 340.344 41.7677 340.811 41.4414L344.005 40.2295L344.006 40.2305Z" fill="white" stroke="white"></path>
<path d="M316.144 2.6582C323.484 0.407649 331.35 0.563964 338.595 3.10449C345.684 5.59018 351.81 10.2311 356.124 16.3701L340.655 27.1113C338.703 24.1053 335.891 21.7502 332.577 20.3604C329.318 18.9932 325.732 18.6245 322.271 19.292L321.581 19.4395C317.91 20.299 314.605 22.2961 312.137 25.1465C309.765 27.8853 308.287 31.2775 307.887 34.8711C304.262 35.0332 300.99 36.0057 298.58 37.5508C296.076 39.1563 294.451 41.4205 294.451 44.0576C294.451 46.7038 296.171 49.0227 298.792 50.6543C301.42 52.2899 305.02 53.2838 308.974 53.2842V53.2852L308.976 53.2842L308.977 53.2852V53.2842C311.44 53.2982 313.887 52.8803 316.207 52.0508C318.863 53.7144 321.907 54.6483 325.034 54.7578L325.678 54.7686C328.562 54.7625 331.404 54.0589 333.958 52.7178C336.367 51.4524 338.452 49.6542 340.06 47.4639L355.963 57.959C351.606 64.0606 345.448 68.6535 338.347 71.0859C331.084 73.5734 323.217 73.672 315.894 71.3682C308.57 69.0641 302.176 64.4782 297.646 58.2803C293.116 52.0824 290.687 44.5978 290.715 36.9209C290.743 29.2439 293.226 21.777 297.802 15.6123C302.377 9.44774 308.804 4.90876 316.144 2.6582Z" fill="white" stroke="white"></path>
</g>
<defs>
<clipPath id="clip0_2001_91">
<rect width="527" height="142" fill="white"></rect>
</clipPath>
</defs>
</svg>