<svg xmlns="http://www.w3.org/2000/svg" viewBox="0 0 600 600">
  <g fill="#ffffff">
    <circle cx="42" cy="58" r="1.2" opacity="0.7"/>
    <circle cx="118" cy="22" r="0.8" opacity="0.5"/>
    <circle cx="184" cy="92" r="1.6" opacity="0.6"/>
    <circle cx="256" cy="44" r="0.9" opacity="0.55"/>
    <circle cx="332" cy="78" r="1.3" opacity="0.65"/>
    <circle cx="404" cy="32" r="0.7" opacity="0.5"/>
    <circle cx="478" cy="68" r="1.4" opacity="0.6"/>
    <circle cx="552" cy="18" r="0.8" opacity="0.5"/>
    <circle cx="74" cy="158" r="1.1" opacity="0.55"/>
    <circle cx="148" cy="206" r="1.8" opacity="0.7"/>
    <circle cx="228" cy="174" r="0.9" opacity="0.5"/>
    <circle cx="298" cy="234" r="1.3" opacity="0.6"/>
    <circle cx="378" cy="192" r="0.7" opacity="0.45"/>
    <circle cx="452" cy="244" r="1.5" opacity="0.65"/>
    <circle cx="528" cy="184" r="1.0" opacity="0.55"/>
    <circle cx="32" cy="304" r="1.4" opacity="0.6"/>
    <circle cx="108" cy="356" r="0.8" opacity="0.5"/>
    <circle cx="188" cy="328" r="1.2" opacity="0.55"/>
    <circle cx="262" cy="386" r="1.7" opacity="0.7"/>
    <circle cx="344" cy="338" r="0.9" opacity="0.5"/>
    <circle cx="416" cy="394" r="1.1" opacity="0.55"/>
    <circle cx="492" cy="344" r="0.8" opacity="0.5"/>
    <circle cx="566" cy="406" r="1.3" opacity="0.6"/>
    <circle cx="58" cy="454" r="0.9" opacity="0.55"/>
    <circle cx="132" cy="496" r="1.5" opacity="0.65"/>
    <circle cx="216" cy="468" r="0.7" opacity="0.45"/>
    <circle cx="284" cy="528" r="1.0" opacity="0.55"/>
    <circle cx="362" cy="482" r="1.6" opacity="0.65"/>
    <circle cx="438" cy="546" r="0.8" opacity="0.5"/>
    <circle cx="516" cy="498" r="1.2" opacity="0.6"/>
    <circle cx="588" cy="556" r="0.9" opacity="0.5"/>
  </g>
  <g fill="#F4E7C3">
    <circle cx="92" cy="108" r="1.0" opacity="0.5"/>
    <circle cx="216" cy="64" r="0.7" opacity="0.4"/>
    <circle cx="368" cy="148" r="1.2" opacity="0.55"/>
    <circle cx="496" cy="116" r="0.8" opacity="0.45"/>
    <circle cx="64" cy="248" r="0.9" opacity="0.45"/>
    <circle cx="312" cy="296" r="1.1" opacity="0.5"/>
    <circle cx="178" cy="412" r="0.8" opacity="0.4"/>
    <circle cx="402" cy="438" r="1.0" opacity="0.5"/>
    <circle cx="544" cy="276" r="0.7" opacity="0.4"/>
  </g>
  <g fill="#F2C568">
    <circle cx="148" cy="142" r="0.9" opacity="0.55"/>
    <circle cx="436" cy="218" r="1.2" opacity="0.6"/>
    <circle cx="248" cy="362" r="0.8" opacity="0.5"/>
    <circle cx="572" cy="412" r="1.1" opacity="0.55"/>
    <circle cx="84" cy="404" r="0.9" opacity="0.5"/>
    <circle cx="328" cy="544" r="1.0" opacity="0.55"/>
  </g>
</svg>
